<svg preserveAspectRatio="none" width="100%" height="100%" overflow="visible" style="display: block;" viewBox="0 0 23.4992 18.125" fill="none" xmlns="http://www.w3.org/2000/svg">
<g id="Frame 3232">
<path id="Vector 131 (Stroke)" d="M18.8318 0.0750732C19.5629 0.0751511 20.2264 0.326985 20.7605 0.619507C21.3013 0.915757 21.7837 1.29485 22.1741 1.64673C22.568 2.00181 22.8944 2.35279 23.1213 2.61353C23.2356 2.74479 23.3271 2.8554 23.3911 2.93518C23.4232 2.97511 23.4486 3.00747 23.4668 3.03101C23.4759 3.04278 23.4833 3.05247 23.4888 3.05969C23.4915 3.06329 23.4937 3.06643 23.4955 3.06885C23.4964 3.07003 23.4973 3.07101 23.4979 3.0719L23.4985 3.07312L23.4992 3.07373C23.4993 3.07397 23.4995 3.07436 22.5 3.82507L21.5009 4.57581L21.4905 4.56299C21.4804 4.54995 21.4637 4.52841 21.441 4.50012C21.3954 4.44323 21.3256 4.35838 21.236 4.25537C21.0549 4.0474 20.7998 3.77323 20.5005 3.50342C20.1976 3.23038 19.8748 2.98435 19.5599 2.81189C19.2384 2.63574 18.9953 2.57508 18.8312 2.57507C18.1571 2.57513 17.7132 2.84367 17.0886 3.30383C16.5323 3.71373 15.5846 4.51954 14.2462 4.51965C12.8962 4.51965 11.8443 3.79276 11.1585 3.34167C10.3546 2.81294 9.93463 2.57508 9.47694 2.57507C8.84081 2.57507 8.17066 2.95088 7.56592 3.50037C7.2813 3.75902 7.05015 4.02128 6.89027 4.21936C6.81113 4.31741 6.7513 4.39748 6.71326 4.45007C6.69429 4.4763 6.6806 4.49579 6.67298 4.50684C6.67056 4.51035 6.6687 4.51299 6.66749 4.51477V4.51416C6.66341 4.51108 6.59917 4.46834 5.62501 3.82507C4.5819 3.13628 4.58231 3.13571 4.58253 3.13538V3.13477L4.58375 3.13354C4.5845 3.13241 4.58523 3.13072 4.58619 3.12927C4.58813 3.12637 4.59074 3.123 4.59351 3.1189C4.59905 3.11069 4.60605 3.09995 4.61487 3.08716C4.63251 3.06159 4.65704 3.02735 4.68751 2.98523C4.74833 2.90113 4.83458 2.7857 4.94446 2.64954C5.16285 2.37894 5.48199 2.01599 5.88502 1.64978C6.65597 0.949287 7.91206 0.0750732 9.47694 0.0750732C10.8099 0.0750831 11.8574 0.80948 12.5317 1.25305C13.3242 1.77428 13.7621 2.01965 14.2462 2.01965C14.5984 2.01956 14.8429 1.85314 15.6061 1.29089C16.3011 0.778841 17.305 0.0750152 18.8318 0.0750732Z" fill="var(--fill-0, #84D1CB)"/>
<path id="Vector" d="M16.0375 5.54993H19.6875L16.6374 18.0499H12.6874L9.96244 9.54993L7.33744 18.0499H3.38744L0 0.700073L3.4375 0.0750732L5.62485 13.6749L8.31244 5.54993H11.7124L14.6874 13.6749L16.0375 5.54993Z" fill="var(--fill-0, #294895)"/>
</g>
</svg>
